<svg width="101" height="40" viewBox="0 0 101 40" fill="none" xmlns="http://www.w3.org/2000/svg">
<g clip-path="url(#clip0_7_33)">
<g clip-path="url(#clip1_7_33)">
<g clip-path="url(#clip2_7_33)">
<g clip-path="url(#clip3_7_33)">
<path d="M0.0512695 37.6041V-9.15527e-05H100.701V37.6041H75.4745V36.3351H99.3989V1.26893H1.35381V36.3351H25.2782V37.6041H0.0512695Z" fill="black"/>
<path d="M31.4233 36.9095H29.7341C29.7019 37.8005 29.9761 38.246 30.5571 38.246C30.8045 38.246 31.0573 38.1394 31.3157 37.9263C31.3693 37.9577 31.4107 38.0118 31.4394 38.0886C31.192 38.3577 30.878 38.4923 30.498 38.4923C29.623 38.4923 29.1853 37.9909 29.1853 36.988C29.1853 36.5127 29.3144 36.143 29.5728 35.879C29.8309 35.6154 30.1323 35.4837 30.4766 35.4837C30.8531 35.4837 31.1238 35.6113 31.2888 35.8664C31.4539 36.1216 31.5363 36.4533 31.5363 36.8622C31.5003 36.8902 31.4627 36.9059 31.4233 36.9095ZM30.4658 35.6933C30.2793 35.6933 30.1207 35.7877 29.9901 35.9765C29.8588 36.1652 29.7789 36.4063 29.7502 36.6999H30.4173C30.6827 36.6999 30.8726 36.6842 30.9875 36.6526C30.9875 36.366 30.9427 36.1344 30.8531 35.9577C30.7634 35.7814 30.6344 35.6936 30.4658 35.6933ZM34.1671 37.4756V36.5163C34.1671 36.2473 34.1306 36.0586 34.0573 35.9503C33.9835 35.8421 33.8604 35.788 33.6881 35.7877C33.4227 35.7877 33.1554 35.9817 32.8866 36.3697V38.1203L33.3223 38.1987C33.3366 38.2547 33.3366 38.3245 33.3223 38.4084C33.0964 38.3979 32.8651 38.3927 32.6284 38.3927C32.4634 38.3927 32.2302 38.3961 31.9291 38.4031C31.9076 38.3367 31.9076 38.2685 31.9291 38.1987L32.3542 38.1412C32.3684 37.949 32.3756 37.7271 32.3756 37.4756V36.0395C32.3756 35.9697 32.3703 35.9048 32.3595 35.8455L31.9345 35.7929C31.9203 35.7407 31.9203 35.6743 31.9345 35.5937C32.1819 35.5762 32.4905 35.5396 32.8597 35.4837C32.8919 35.5187 32.9099 35.5535 32.9137 35.5885C32.8957 35.6792 32.8868 35.8348 32.8866 36.0552C33.1699 35.6743 33.489 35.4839 33.8443 35.4837C34.4003 35.4837 34.678 35.7404 34.678 36.2544V38.1203L35.1138 38.1987C35.128 38.2547 35.128 38.3245 35.1138 38.4084C34.8879 38.3979 34.6565 38.3927 34.4199 38.3927C34.2548 38.3927 34.0216 38.3961 33.7206 38.4031C33.6991 38.3367 33.6991 38.2685 33.7206 38.1987L34.1456 38.1412C34.1598 37.949 34.1671 37.7271 34.1671 37.4756ZM35.7541 38.6128V36.359C35.7541 36.1284 35.7487 35.9571 35.738 35.8455L35.2592 35.7929C35.245 35.7407 35.245 35.6743 35.2592 35.5937C35.5748 35.5728 35.9011 35.536 36.2382 35.4837C36.2704 35.5187 36.2883 35.5535 36.2921 35.5885C36.2741 35.6792 36.2653 35.9624 36.2653 36.4377V38.3352C36.2653 38.6183 36.2395 38.8732 36.1877 39.1004C36.1354 39.3276 36.0439 39.519 35.9132 39.6748C35.782 39.8298 35.6194 39.9075 35.4259 39.9075C35.2107 39.9075 35.0575 39.8761 34.9665 39.8131C34.8747 39.7501 34.8288 39.6507 34.8288 39.5143C34.915 39.3956 35.0368 39.336 35.1946 39.3362C35.2448 39.3362 35.2968 39.3414 35.3505 39.3519C35.3899 39.6 35.4455 39.7239 35.5174 39.7239C35.6035 39.7239 35.6644 39.64 35.7001 39.4724C35.7361 39.3046 35.7538 39.018 35.7541 38.6128ZM35.4796 34.5665C35.4723 34.549 35.4688 34.5305 35.4688 34.5109C35.4688 34.492 35.4688 34.4737 35.4688 34.4565C35.4688 34.3621 35.5091 34.286 35.5893 34.228C35.6704 34.1707 35.7702 34.142 35.8885 34.142C35.9996 34.142 36.0903 34.1741 36.1609 34.2384C36.2304 34.3035 36.2653 34.3919 36.2653 34.5035C36.2653 34.5943 36.2247 34.6677 36.1434 34.7237C36.0632 34.7796 35.9602 34.8076 35.8348 34.8076C35.7487 34.8076 35.6728 34.7867 35.6068 34.7448C35.5399 34.703 35.4978 34.6434 35.4796 34.5665ZM36.9214 36.9932C36.9214 36.7835 36.953 36.5869 37.0161 36.4031C37.0786 36.2201 37.1688 36.0604 37.2874 35.9239C37.4057 35.7877 37.5485 35.68 37.7157 35.6011C37.882 35.5229 38.0693 35.4837 38.2773 35.4837C38.4818 35.4837 38.6683 35.5229 38.8368 35.6011C39.0053 35.68 39.1494 35.7877 39.2691 35.9239C39.3896 36.0601 39.4822 36.2199 39.5468 36.4031C39.6115 36.5869 39.6437 36.7838 39.6437 36.9932C39.6437 37.2099 39.6107 37.4089 39.5447 37.5909C39.4779 37.7726 39.3845 37.9305 39.2637 38.0646C39.1441 38.1995 38.9997 38.3043 38.8314 38.3791C38.6629 38.4546 38.478 38.4923 38.2773 38.4923C38.0656 38.4923 37.8764 38.4557 37.709 38.3822C37.5426 38.3088 37.4012 38.2058 37.2852 38.073C37.1682 37.9401 37.0786 37.782 37.0161 37.5982C36.953 37.4152 36.9214 37.2133 36.9214 36.9932ZM37.7068 36.0288C37.5525 36.2418 37.4755 36.5634 37.4755 36.9932C37.4755 37.2063 37.4964 37.3932 37.538 37.554C37.5788 37.7148 37.6352 37.8481 37.7068 37.9545C37.7785 38.0614 37.8627 38.1412 37.9599 38.1935C38.0567 38.2458 38.1625 38.2722 38.2773 38.2722C38.3884 38.2722 38.4944 38.246 38.5945 38.1935C38.6948 38.1412 38.781 38.0614 38.8529 37.9545C38.9245 37.8484 38.982 37.7148 39.0249 37.554C39.0678 37.3932 39.0896 37.2063 39.0896 36.9932C39.0896 36.7801 39.0681 36.5922 39.0249 36.4293C38.982 36.2672 38.9237 36.1326 38.8508 36.0256C38.777 35.9195 38.6906 35.839 38.5913 35.7846C38.4931 35.7307 38.3884 35.7038 38.2773 35.7038C38.0548 35.7038 37.8649 35.812 37.7068 36.0288ZM40.9025 39.1631L41.2468 38.3718L40.2032 35.8664L39.7835 35.7825C39.7655 35.7127 39.7655 35.6426 39.7835 35.5728C39.9807 35.5867 40.2212 35.5937 40.5046 35.5937C40.7592 35.5937 41.0013 35.5885 41.2307 35.578C41.2522 35.6479 41.2522 35.7161 41.2307 35.7825L40.7681 35.856L41.279 37.0353C41.3506 37.2065 41.426 37.4458 41.5049 37.7532H41.5159C41.5769 37.5435 41.6611 37.3129 41.7687 37.0614L42.2367 35.8403L41.817 35.7825C41.8028 35.7265 41.8028 35.6567 41.817 35.5728C42.0143 35.5867 42.2061 35.5937 42.3926 35.5937C42.5504 35.5937 42.746 35.5885 42.9792 35.578C43.0007 35.6479 43.0007 35.7161 42.9792 35.7825L42.5542 35.8403L41.1338 39.2262C41.0584 39.4008 40.9742 39.5318 40.881 39.6191C40.7879 39.7064 40.6639 39.7501 40.5099 39.7503C40.3881 39.7503 40.2939 39.7357 40.2279 39.7062C40.1611 39.6761 40.0937 39.6191 40.0256 39.5354C40.047 39.3433 40.1493 39.1896 40.3323 39.074C40.4793 39.2348 40.6049 39.315 40.7088 39.3153C40.7984 39.3153 40.8631 39.2646 40.9025 39.1631ZM45.4053 39.1631L45.7499 38.3718L44.706 35.8664L44.2863 35.7825C44.2683 35.7127 44.2683 35.6426 44.2863 35.5728C44.4835 35.5867 44.724 35.5937 45.0073 35.5937C45.262 35.5937 45.5041 35.5885 45.7335 35.578C45.755 35.6479 45.755 35.7161 45.7335 35.7825L45.2709 35.856L45.7821 37.0353C45.8537 37.2065 45.9291 37.4458 46.008 37.7532H46.0187C46.0796 37.5435 46.1639 37.3129 46.2715 37.0614L46.7395 35.8403L46.3201 35.7825C46.3059 35.7265 46.3059 35.6567 46.3201 35.5728C46.5173 35.5867 46.7092 35.5937 46.8957 35.5937C47.0535 35.5937 47.2491 35.5885 47.482 35.578C47.5035 35.6479 47.5035 35.7161 47.482 35.7825L47.057 35.8403L45.6369 39.2262C45.5615 39.4008 45.4772 39.5318 45.3838 39.6191C45.2907 39.7064 45.1667 39.7501 45.0127 39.7503C44.8909 39.7503 44.7964 39.7357 44.7296 39.7062C44.6636 39.6761 44.5965 39.6191 44.5286 39.5354C44.5501 39.3433 44.6523 39.1896 44.8351 39.074C44.9821 39.2348 45.1077 39.315 45.2118 39.3153C45.3015 39.3153 45.3661 39.2646 45.4053 39.1631ZM47.6218 36.9932C47.6218 36.7835 47.6535 36.5869 47.7165 36.4031C47.7791 36.2201 47.8692 36.0604 47.9878 35.9239C48.1062 35.7877 48.2489 35.68 48.4158 35.6011C48.5822 35.5229 48.7695 35.4837 48.9775 35.4837C49.182 35.4837 49.3685 35.5229 49.537 35.6011C49.7055 35.68 49.8501 35.7877 49.9706 35.9239C50.0903 36.0601 50.1826 36.2199 50.2473 36.4031C50.312 36.5869 50.3442 36.7838 50.3442 36.9932C50.3442 37.2099 50.3112 37.4089 50.2451 37.5909C50.1783 37.7726 50.0852 37.9305 49.9653 38.0646C49.8448 38.1995 49.7001 38.3043 49.5316 38.3791C49.3631 38.4546 49.1782 38.4923 48.9775 38.4923C48.7658 38.4923 48.5769 38.4557 48.4105 38.3822C48.2433 38.3088 48.1016 38.2058 47.9857 38.073C47.8687 37.9401 47.7791 37.782 47.7165 37.5982C47.6535 37.4152 47.6218 37.2133 47.6218 36.9932ZM48.4073 36.0288C48.253 36.2418 48.1759 36.5634 48.1759 36.9932C48.1759 37.2063 48.1969 37.3932 48.2385 37.554C48.2793 37.7148 48.3356 37.8481 48.4073 37.9545C48.4789 38.0614 48.5632 38.1412 48.6603 38.1935C48.7572 38.2458 48.8629 38.2722 48.9775 38.2722C49.0886 38.2722 49.1946 38.246 49.2949 38.1935C49.3953 38.1412 49.4814 38.0614 49.5533 37.9545C49.625 37.8484 49.6824 37.7148 49.7254 37.554C49.7683 37.3932 49.79 37.2063 49.79 36.9932C49.79 36.7801 49.7686 36.5922 49.7254 36.4293C49.6824 36.2672 49.6242 36.1326 49.5512 36.0256C49.4774 35.9195 49.3913 35.839 49.2928 35.7846C49.1938 35.7307 49.0888 35.7038 48.9775 35.7038C48.755 35.7038 48.565 35.812 48.4073 36.0288ZM53.3515 35.5885V37.6431C53.3515 37.8771 53.3568 38.0416 53.3676 38.136L53.7926 38.1882C53.8034 38.2442 53.8034 38.3106 53.7926 38.3875C53.5307 38.3979 53.2584 38.4225 52.9747 38.4609C52.9495 38.4363 52.9318 38.4031 52.9211 38.3613L52.8942 37.8949C52.7437 38.0837 52.5886 38.2303 52.4292 38.3352C52.2693 38.44 52.0817 38.4923 51.8665 38.4923C51.6478 38.4923 51.464 38.4382 51.3156 38.3299C51.1664 38.2217 51.0918 38.0363 51.0918 37.7741V36.6107C51.0918 36.2123 51.0864 35.9574 51.0757 35.8455L50.6506 35.7929C50.6364 35.7407 50.6364 35.6743 50.6506 35.5937C50.898 35.5762 51.2066 35.5396 51.5761 35.4837C51.6083 35.5187 51.6263 35.5535 51.6298 35.5885C51.6118 35.6792 51.603 36.3205 51.603 37.5122C51.603 37.7569 51.6327 37.9305 51.6923 38.0332C51.7511 38.1367 51.8614 38.1882 52.0226 38.1882C52.324 38.1882 52.5964 38.0136 52.8403 37.6641V36.6055C52.8403 36.2107 52.8349 35.9574 52.8242 35.8455L52.3991 35.7929C52.3849 35.7407 52.3849 35.6743 52.3991 35.5937C52.6143 35.5799 52.9138 35.543 53.2975 35.4837C53.3297 35.5187 53.3477 35.5535 53.3515 35.5885ZM55.03 35.5885L55.0192 36.1284C55.1089 35.9676 55.2336 35.8199 55.3936 35.685C55.5527 35.5509 55.704 35.4837 55.8476 35.4837C55.9587 35.4837 56.0575 35.496 56.1436 35.5205C56.1723 35.566 56.1865 35.6254 56.1865 35.6986C56.1865 35.8139 56.1613 35.9292 56.1111 36.0447C55.982 36.0097 55.8583 35.9924 55.74 35.9922C55.4459 35.9922 55.2039 36.132 55.0139 36.4115L55.0029 37.3286V38.1203L55.6002 38.1987C55.6144 38.2547 55.6144 38.3245 55.6002 38.4084C55.3743 38.3979 55.1161 38.3927 54.8255 38.3927C54.6068 38.3927 54.3468 38.3961 54.0454 38.4031C54.0239 38.3367 54.0239 38.2685 54.0454 38.1987L54.4705 38.1412C54.4847 37.949 54.4919 37.7271 54.4919 37.4756V36.0395C54.4919 35.9697 54.4866 35.9048 54.4758 35.8455L54.0508 35.7929C54.0366 35.7407 54.0366 35.6743 54.0508 35.5937C54.2982 35.5762 54.6068 35.5396 54.976 35.4837C55.0082 35.5187 55.0262 35.5535 55.03 35.5885ZM60.3775 35.0646V37.6431C60.3775 37.8771 60.3829 38.0416 60.3936 38.136L60.8187 38.1882C60.8294 38.2442 60.8294 38.3106 60.8187 38.3875C60.5568 38.3979 60.2844 38.4225 60.0008 38.4609C59.9755 38.4363 59.9578 38.4031 59.9471 38.3613L59.9203 38.0259C59.7947 38.1692 59.6388 38.2834 59.452 38.3686C59.2655 38.4546 59.0701 38.4975 58.8657 38.4975C58.5536 38.4975 58.2954 38.3707 58.091 38.1171C57.8865 37.8641 57.7842 37.5263 57.7842 37.1033C57.7842 36.6141 57.9181 36.2217 58.1857 35.926C58.4524 35.6311 58.7725 35.4837 59.1455 35.4837C59.4396 35.4837 59.6798 35.5519 59.8663 35.6881V34.9859C59.8663 34.7553 59.8609 34.5841 59.8502 34.4722L59.4252 34.4199C59.4109 34.3676 59.4109 34.3012 59.4252 34.2207C59.6726 34.2031 59.9812 34.1665 60.3504 34.1106C60.3826 34.1456 60.4006 34.1804 60.4043 34.2154C60.3864 34.3062 60.3775 34.5893 60.3775 35.0646ZM59.1023 35.7668C58.8692 35.7668 58.6826 35.8863 58.5428 36.1252C58.403 36.365 58.333 36.6962 58.333 37.119C58.333 37.4648 58.3987 37.7286 58.53 37.9106C58.6604 38.0923 58.8335 38.1833 59.0487 38.183C59.1777 38.183 59.3194 38.1435 59.4737 38.0646C59.628 37.9864 59.759 37.8774 59.8663 37.7375V36.0604C59.6905 35.8648 59.4359 35.7668 59.1023 35.7668ZM62.056 35.5885L62.0453 36.1284C62.1349 35.9676 62.2597 35.8199 62.4196 35.685C62.5787 35.5509 62.7301 35.4837 62.8736 35.4837C62.9847 35.4837 63.0835 35.496 63.1696 35.5205C63.1983 35.566 63.2126 35.6254 63.2126 35.6986C63.2126 35.8139 63.1873 35.9292 63.1371 36.0447C63.0081 36.0097 62.8844 35.9924 62.766 35.9922C62.4719 35.9922 62.2299 36.132 62.0399 36.4115L62.0289 37.3286V38.1203L62.6262 38.1987C62.6404 38.2547 62.6404 38.3245 62.6262 38.4084C62.4003 38.3979 62.1421 38.3927 61.8515 38.3927C61.6328 38.3927 61.3728 38.3961 61.0714 38.4031C61.05 38.3367 61.05 38.2685 61.0714 38.1987L61.4965 38.1412C61.5107 37.949 61.518 37.7271 61.518 37.4756V36.0395C61.518 35.9697 61.5126 35.9048 61.5019 35.8455L61.0768 35.7929C61.0626 35.7407 61.0626 35.6743 61.0768 35.5937C61.3242 35.5762 61.6328 35.5396 62.0021 35.4837C62.0343 35.5187 62.0522 35.5535 62.056 35.5885ZM64.3691 36.4377V38.1203L64.8049 38.1987C64.8084 38.2162 64.8113 38.2319 64.8135 38.246C64.8148 38.2599 64.8156 38.2758 64.8156 38.2931C64.8156 38.3106 64.8148 38.3286 64.8135 38.3477C64.8113 38.3673 64.8084 38.3875 64.8049 38.4084C64.579 38.3979 64.3476 38.3927 64.111 38.3927C64.0286 38.3927 63.929 38.3937 63.8128 38.3958C63.6958 38.3971 63.5622 38.3997 63.4117 38.4031C63.4009 38.3718 63.3956 38.3386 63.3956 38.3035C63.3956 38.2722 63.4009 38.2371 63.4117 38.1987L63.8367 38.1412C63.844 38.0434 63.8493 37.9391 63.8528 37.8288C63.8563 37.719 63.8582 37.6013 63.8582 37.4756V36.359C63.8582 36.1284 63.8528 35.9571 63.8421 35.8455L63.417 35.7929C63.4098 35.7754 63.4063 35.7459 63.4063 35.7038C63.4063 35.6863 63.4063 35.6688 63.4063 35.6515C63.4063 35.634 63.4098 35.6149 63.417 35.5937C63.661 35.5799 63.9693 35.543 64.3423 35.4837C64.3745 35.5187 64.3925 35.5535 64.3962 35.5885C64.3782 35.6863 64.3694 35.9694 64.3691 36.4377ZM63.5837 34.5665C63.5764 34.549 63.5729 34.5305 63.5729 34.5109C63.5729 34.492 63.5729 34.4737 63.5729 34.4565C63.5729 34.3621 63.6135 34.286 63.6945 34.228C63.7747 34.1707 63.8743 34.142 63.9926 34.142C64.1037 34.142 64.1944 34.1741 64.2647 34.2384C64.3342 34.3035 64.3691 34.3919 64.3691 34.5035C64.3691 34.5943 64.3289 34.6677 64.2486 34.7237C64.1676 34.7796 64.0643 34.8076 63.939 34.8076C63.8528 34.8076 63.7769 34.7867 63.7109 34.7448C63.644 34.703 63.6019 34.6434 63.5837 34.5665ZM67.3174 37.4756V36.5163C67.3174 36.2473 67.2809 36.0586 67.2076 35.9503C67.1338 35.8421 67.0107 35.788 66.8387 35.7877C66.5733 35.7877 66.306 35.9817 66.0369 36.3697V38.1203L66.4726 38.1987C66.4869 38.2547 66.4869 38.3245 66.4726 38.4084C66.2467 38.3979 66.0154 38.3927 65.7787 38.3927C65.6137 38.3927 65.3805 38.3961 65.0794 38.4031C65.0579 38.3367 65.0579 38.2685 65.0794 38.1987L65.5045 38.1412C65.5187 37.949 65.5259 37.7271 65.5259 37.4756V36.0395C65.5259 35.9697 65.5206 35.9048 65.5098 35.8455L65.0848 35.7929C65.0706 35.7407 65.0706 35.6743 65.0848 35.5937C65.3322 35.5762 65.6408 35.5396 66.01 35.4837C66.0422 35.5187 66.0602 35.5535 66.064 35.5885C66.046 35.6792 66.0371 35.8348 66.0369 36.0552C66.3202 35.6743 66.6393 35.4839 66.9946 35.4837C67.5506 35.4837 67.8283 35.7404 67.8283 36.2544V38.1203L68.2641 38.1987C68.2783 38.2547 68.2783 38.3245 68.2641 38.4084C68.0382 38.3979 67.8069 38.3927 67.5702 38.3927C67.4051 38.3927 67.172 38.3961 66.8709 38.4031C66.8494 38.3367 66.8494 38.2685 66.8709 38.1987L67.2959 38.1412C67.3102 37.949 67.3174 37.7271 67.3174 37.4756ZM70.5507 38.1464L69.4585 36.8779L70.5829 35.8194L70.2278 35.7773C70.2136 35.7213 70.2136 35.6533 70.2278 35.5728C70.4251 35.5867 70.6097 35.5937 70.782 35.5937C70.9218 35.5937 71.1083 35.5885 71.3415 35.578C71.3629 35.6411 71.3629 35.7075 71.3415 35.7773L70.9164 35.8507L69.9643 36.7208L71.137 38.0886L71.5567 38.1935C71.5709 38.2494 71.5709 38.3192 71.5567 38.4031C71.3307 38.3927 71.1048 38.3875 70.8788 38.3875C70.7245 38.3875 70.497 38.3909 70.1956 38.3979C70.1742 38.3281 70.1742 38.2599 70.1956 38.1935L70.5507 38.1464ZM69.3992 35.0646V38.1203L69.835 38.1987C69.8492 38.2547 69.8492 38.3245 69.835 38.4084C69.609 38.3979 69.3796 38.3927 69.1464 38.3927C68.9814 38.3927 68.7482 38.3961 68.4471 38.4031C68.4256 38.3367 68.4256 38.2685 68.4471 38.1987L68.8722 38.1412C68.8864 37.949 68.8936 37.7271 68.8936 37.4756V34.4722L68.4525 34.4199C68.4383 34.3676 68.4383 34.3012 68.4525 34.2207C68.6927 34.2031 68.9994 34.1665 69.3724 34.1106C69.4046 34.1456 69.4225 34.1804 69.4263 34.2154C69.4083 34.3062 69.3995 34.5893 69.3992 35.0646Z" fill="black"/>
<g clip-path="url(#clip4_7_33)">
<g clip-path="url(#clip5_7_33)">
<g clip-path="url(#clip6_7_33)">
<g clip-path="url(#clip7_7_33)">
<g clip-path="url(#clip8_7_33)">
<g clip-path="url(#clip9_7_33)">
<g clip-path="url(#clip10_7_33)">
<path d="M10.3216 23.5412C11.108 23.5412 11.6377 23.3082 11.9107 22.8421C12.0134 22.6762 12.0647 22.4932 12.0647 22.2931C12.0647 21.827 11.7171 21.4269 11.0217 21.0927C10.8723 21.0154 10.6273 20.9052 10.2866 20.7619C9.35324 20.3846 8.73254 20.0288 8.42452 19.6946C8.09317 19.3285 7.92749 18.9011 7.92749 18.4124C7.92749 17.6462 8.36035 17.1074 9.22607 16.7959C9.62509 16.6527 10.058 16.5811 10.5246 16.5811C11.2784 16.5811 11.9282 16.7368 12.4743 17.0483C12.4743 16.7255 12.5536 16.5425 12.7123 16.4993C12.7823 16.4879 12.857 16.4822 12.9363 16.4822V18.5624H12.4918C12.4684 17.5416 11.8874 17.0256 10.7487 17.0142C9.89461 17.0142 9.36491 17.2586 9.15957 17.7474C9.10123 17.8792 9.07206 18.0179 9.07206 18.1634C9.07206 18.6408 9.42558 19.0455 10.1326 19.3774C10.2913 19.4547 10.5422 19.5604 10.8852 19.6946C11.8069 20.0606 12.4218 20.4107 12.7298 20.7449C13.0611 21.0995 13.2268 21.5213 13.2268 22.0101C13.2268 22.9081 12.7368 23.5071 11.7567 23.8072C11.381 23.93 10.9703 23.9914 10.5246 23.9914C9.7056 23.98 8.99389 23.7799 8.38952 23.3912C8.38952 23.6799 8.31601 23.847 8.16901 23.8925C8.099 23.9016 8.0185 23.9061 7.92749 23.9061V21.3758H8.40702C8.43035 22.808 9.06856 23.5298 10.3216 23.5412ZM22.7124 23.4082H21.8548V16.7482H19.1737V17.1642H20.5738V20.7619C20.5738 21.76 20.2156 22.492 19.4992 22.9581C19.1795 23.1695 18.8482 23.2752 18.5051 23.2752C17.5718 23.2752 17.0304 22.8092 16.881 21.8771C16.86 21.7202 16.8495 21.5531 16.8495 21.3758V16.7482H14.2524V17.1642H15.5685V21.1268C15.5778 23.0251 16.3922 23.98 18.0116 23.9914C18.8657 23.9914 19.5657 23.6526 20.1117 22.9751C20.3171 22.7205 20.4828 22.4375 20.6088 22.126L20.7278 23.8243H23.1394C23.1394 23.581 23.0531 23.448 22.8804 23.4253C22.8361 23.4139 22.7801 23.4082 22.7124 23.4082ZM27.8017 26.5728H26.6081V23.1252C27.2335 23.6572 27.9569 23.9459 28.7783 23.9914C29.791 23.9914 30.6392 23.6196 31.3229 22.8762C31.9833 22.1533 32.3135 21.2371 32.3135 20.1277C32.3135 18.8614 31.9553 17.9008 31.2389 17.2461C30.7372 16.8028 30.127 16.5811 29.4083 16.5811C28.3046 16.5811 27.4785 17.0085 26.9302 17.8633C26.7948 18.0861 26.6816 18.3191 26.5906 18.5624L26.5031 16.7482H24.0425V17.1642H25.3236V25.5737C25.3236 26.0829 25.1754 26.3875 24.879 26.4876C24.7087 26.5444 24.4298 26.5728 24.0425 26.5728V26.9889H28.2287C28.2287 26.7433 28.1436 26.6103 27.9732 26.5899C27.9289 26.5785 27.8717 26.5728 27.8017 26.5728ZM28.8623 17.2461C29.854 17.2461 30.4805 17.852 30.7419 19.0637C30.8212 19.4297 30.8609 19.8401 30.8609 20.2948C30.8609 21.9271 30.4117 22.9592 29.5133 23.3912C29.2496 23.5139 28.9638 23.5753 28.6558 23.5753C27.7807 23.5753 27.1775 23.1252 26.8462 22.2249C26.6758 21.7702 26.5906 21.2325 26.5906 20.6119C26.5906 19.1683 26.9722 18.1691 27.7352 17.6144C28.0759 17.3688 28.4516 17.2461 28.8623 17.2461ZM37.2523 16.9971C38.0503 16.9971 38.58 17.3245 38.8414 17.9793C38.9324 18.1907 38.9779 18.418 38.9779 18.6613C38.9779 19.216 38.7049 19.5548 38.1588 19.6775C37.8742 19.7344 37.4693 19.7571 36.9443 19.7457L35.1347 19.6946C35.1907 18.4192 35.6177 17.5871 36.4157 17.1983C36.6771 17.0642 36.9559 16.9971 37.2523 16.9971ZM40.2275 22.2249L39.8005 22.0749C39.4014 22.9183 38.7574 23.3957 37.8683 23.5071C37.754 23.5185 37.6455 23.5242 37.5428 23.5242C36.3481 23.5242 35.5967 22.8308 35.2887 21.444C35.1977 21.0552 35.1463 20.6278 35.1347 20.1618L37.1858 20.1959C38.5742 20.2163 39.4679 20.0879 39.867 19.8105C40.175 19.59 40.329 19.274 40.329 18.8625C40.329 18.1077 39.9358 17.5087 39.1494 17.0653C38.5917 16.7425 37.9488 16.5811 37.2208 16.5811C35.795 16.5811 34.7753 17.1586 34.1616 18.3135C33.8419 18.9114 33.6821 19.5877 33.6821 20.3425C33.6821 21.7202 34.1884 22.7421 35.2012 23.4082C35.8055 23.797 36.4951 23.9914 37.2698 23.9914C38.5019 23.9914 39.4084 23.5583 39.9895 22.6921C40.0805 22.5375 40.1598 22.3818 40.2275 22.2249ZM45.2678 23.4082H44.0392V20.0936C44.0392 19.0842 44.3577 18.2737 44.9948 17.6621C45.2445 17.4302 45.4556 17.3086 45.6283 17.2972C45.822 17.2972 45.9982 17.4359 46.1568 17.7133C46.3389 18.0247 46.5092 18.2021 46.6679 18.2453C46.7379 18.268 46.8067 18.2794 46.8744 18.2794C47.2174 18.2794 47.4344 18.1179 47.5254 17.7951C47.5464 17.7292 47.5569 17.6633 47.5569 17.5973C47.5569 17.0972 47.2956 16.7914 46.7729 16.68C46.6585 16.6595 46.55 16.6493 46.4474 16.6493C45.7637 16.6493 45.1546 16.9324 44.6202 17.4984C44.3682 17.7644 44.1687 18.0634 44.0217 18.3953L43.9517 16.7482H41.4736V17.1642H42.7546V22.409C42.7546 22.9206 42.6065 23.2263 42.3101 23.3264C42.1398 23.3809 41.8609 23.4082 41.4736 23.4082V23.8243H45.6948C45.6948 23.581 45.6096 23.448 45.4393 23.4253C45.3926 23.4139 45.3355 23.4082 45.2678 23.4082ZM51.6592 20.3595C51.6592 21.7031 52.1655 22.708 53.1783 23.3741C53.806 23.7856 54.5189 23.9914 55.3169 23.9914C56.5 23.9914 57.3937 23.5855 57.9981 22.7739C58.1357 22.5852 58.2443 22.3965 58.3236 22.2078L57.8791 22.0578C57.4567 22.9353 56.7613 23.4184 55.7929 23.5071C55.7019 23.5185 55.6109 23.5242 55.5199 23.5242C54.7125 23.5242 54.0802 23.1297 53.6228 22.3408C53.2821 21.7429 53.1118 21.0325 53.1118 20.2095C53.1118 18.7568 53.505 17.786 54.2913 17.2972C54.6204 17.0972 54.9844 16.9971 55.3834 16.9971C55.9994 16.9971 56.3705 17.2302 56.4965 17.6962C56.5175 17.7849 56.5455 17.9236 56.5805 18.1123C56.6482 18.5579 56.773 18.8352 56.955 18.9443C57.0693 19.0012 57.1954 19.0353 57.333 19.0466C57.7204 19.0671 57.9654 18.9114 58.0681 18.5795C58.0914 18.5022 58.1031 18.4294 58.1031 18.3612C58.1031 17.7951 57.7321 17.3291 56.99 16.963C56.4673 16.7084 55.8979 16.5811 55.2819 16.5811C53.7558 16.5811 52.6906 17.1858 52.0862 18.3953C51.8015 18.9728 51.6592 19.6275 51.6592 20.3595ZM60.5462 20.2777C60.5462 18.5567 61.0304 17.5075 61.9988 17.1301C62.2485 17.0415 62.5098 16.9971 62.7829 16.9971C64.0476 16.9971 64.7827 17.7747 64.988 19.3297C65.023 19.5957 65.0405 19.8889 65.0405 20.2095C65.0405 22.076 64.5166 23.1695 63.4689 23.4901C63.2636 23.5469 63.0524 23.5753 62.8354 23.5753C61.685 23.5753 60.9616 22.9092 60.6652 21.577C60.5859 21.1882 60.5462 20.7551 60.5462 20.2777ZM62.8354 16.5811C61.741 16.5811 60.8297 16.9471 60.1017 17.6792C59.4297 18.3567 59.0936 19.2001 59.0936 20.2095C59.0936 21.6099 59.6175 22.6591 60.6652 23.3571C61.3023 23.7799 62.0082 23.9914 62.7829 23.9914C63.8773 23.9914 64.7838 23.614 65.5025 22.8592C66.1629 22.1703 66.4931 21.3098 66.4931 20.2777C66.4931 18.8795 65.9634 17.8417 64.904 17.1642C64.2763 16.7755 63.5867 16.5811 62.8354 16.5811ZM71.4634 23.4082H70.2698V17.1642H72.2334V16.7482H70.2698V16.6493C70.2698 14.751 70.5603 13.6734 71.1414 13.4165C71.2651 13.3619 71.4016 13.3346 71.5509 13.3346C71.9033 13.3346 72.1996 13.5393 72.44 13.9485C72.6453 14.3054 72.7935 14.5168 72.8845 14.5828C72.9755 14.6487 73.0782 14.6817 73.1925 14.6817C73.5682 14.6817 73.7899 14.5271 73.8575 14.2179C73.8692 14.161 73.8751 14.111 73.8751 14.0678C73.8751 13.6563 73.5904 13.3335 73.021 13.0993C72.6896 12.9789 72.3186 12.9186 71.9079 12.9186C70.8369 12.9186 70.04 13.3517 69.5173 14.2179C69.1626 14.8158 68.9852 15.5706 68.9852 16.4822V16.7482H67.7917V17.1642H68.9852V22.409C68.9852 22.9206 68.8371 23.2263 68.5407 23.3264C68.3704 23.3809 68.0915 23.4082 67.7042 23.4082V23.8243H71.8939C71.8939 23.581 71.8076 23.448 71.6349 23.4253C71.5906 23.4139 71.5334 23.4082 71.4634 23.4082ZM76.6612 23.4082H75.4641V17.1642H77.4278V16.7482H75.4641V16.6493C75.4641 14.751 75.7547 13.6734 76.3357 13.4165C76.4617 13.3619 76.5982 13.3346 76.7452 13.3346C77.0976 13.3346 77.3939 13.5393 77.6343 13.9485C77.8396 14.3054 77.9878 14.5168 78.0788 14.5828C78.1698 14.6487 78.2725 14.6817 78.3868 14.6817C78.7625 14.6817 78.9842 14.5271 79.0519 14.2179C79.0635 14.161 79.0694 14.111 79.0694 14.0678C79.0694 13.6563 78.7847 13.3335 78.2153 13.0993C77.884 12.9789 77.5141 12.9186 77.1057 12.9186C76.0347 12.9186 75.2366 13.3517 74.7116 14.2179C74.3592 14.8158 74.1831 15.5706 74.1831 16.4822V16.7482H72.986V17.1642H74.1831V22.409C74.1831 22.9206 74.0349 23.2263 73.7385 23.3264C73.5659 23.3809 73.2858 23.4082 72.8985 23.4082V23.8243H77.0882C77.0882 23.581 77.0019 23.448 76.8292 23.4253C76.7849 23.4139 76.7289 23.4082 76.6612 23.4082ZM81.8205 16.9971C82.6186 16.9971 83.1483 17.3245 83.4096 17.9793C83.5006 18.1907 83.5461 18.418 83.5461 18.6613C83.5461 19.216 83.2731 19.5548 82.7271 19.6775C82.4424 19.7344 82.0375 19.7571 81.5125 19.7457L79.6994 19.6946C79.7577 18.4192 80.1859 17.5871 80.984 17.1983C81.2453 17.0642 81.5242 16.9971 81.8205 16.9971ZM84.7957 22.2249L84.3652 22.0749C83.9685 22.9183 83.3256 23.3957 82.4366 23.5071C82.3222 23.5185 82.2137 23.5242 82.1111 23.5242C80.914 23.5242 80.1614 22.8308 79.8534 21.444C79.7624 21.0552 79.7111 20.6278 79.6994 20.1618L81.7505 20.1959C83.1413 20.2163 84.0362 20.0879 84.4352 19.8105C84.7432 19.59 84.8972 19.274 84.8972 18.8625C84.8972 18.1077 84.504 17.5087 83.7177 17.0653C83.16 16.7425 82.5159 16.5811 81.7855 16.5811C80.3621 16.5811 79.3424 17.1586 78.7263 18.3135C78.4067 18.9114 78.2468 19.5877 78.2468 20.3425C78.2468 21.7202 78.7543 22.7421 79.7694 23.4082C80.3738 23.797 81.0633 23.9914 81.838 23.9914C83.0678 23.9914 83.9732 23.5583 84.5542 22.6921C84.6452 22.5375 84.7257 22.3818 84.7957 22.2249ZM89.7485 16.9971C90.5466 16.9971 91.0763 17.3245 91.3376 17.9793C91.4286 18.1907 91.4741 18.418 91.4741 18.6613C91.4741 19.216 91.2011 19.5548 90.6551 19.6775C90.3704 19.7344 89.9655 19.7571 89.4405 19.7457L87.6309 19.6946C87.6869 18.4192 88.1139 17.5871 88.912 17.1983C89.1733 17.0642 89.4522 16.9971 89.7485 16.9971ZM92.7237 22.2249L92.2967 22.0749C91.8977 22.9183 91.2536 23.3957 90.3646 23.5071C90.2502 23.5185 90.1417 23.5242 90.039 23.5242C88.8443 23.5242 88.0929 22.8308 87.7849 21.444C87.6939 21.0552 87.6426 20.6278 87.6309 20.1618L89.682 20.1959C91.0704 20.2163 91.9642 20.0879 92.3632 19.8105C92.6712 19.59 92.8252 19.274 92.8252 18.8625C92.8252 18.1077 92.432 17.5087 91.6456 17.0653C91.0879 16.7425 90.4451 16.5811 89.717 16.5811C88.2913 16.5811 87.2715 17.1586 86.6578 18.3135C86.3381 18.9114 86.1783 19.5877 86.1783 20.3425C86.1783 21.7202 86.6847 22.7421 87.6974 23.4082C88.3018 23.797 88.9913 23.9914 89.766 23.9914C90.9981 23.9914 91.9047 23.5583 92.4857 22.6921C92.5767 22.5375 92.656 22.3818 92.7237 22.2249Z" fill="black"/>
</g>
</g>
</g>
</g>
</g>
</g>
</g>
</g>
</g>
</g>
</g>
<defs>
<clipPath id="clip0_7_33">
<rect width="101" height="40" fill="white"/>
</clipPath>
<clipPath id="clip1_7_33">
<rect width="101" height="40" fill="white" transform="translate(-0.123535 -0.0462646)"/>
</clipPath>
<clipPath id="clip2_7_33">
<rect width="100.65" height="39.9074" fill="white" transform="translate(0.0515137 3.05176e-05)"/>
</clipPath>
<clipPath id="clip3_7_33">
<rect width="100.65" height="39.9074" fill="white" transform="translate(0.0515137 3.05176e-05)"/>
</clipPath>
<clipPath id="clip4_7_33">
<rect width="84.9081" height="14.0703" fill="white" transform="translate(7.92261 12.9186)"/>
</clipPath>
<clipPath id="clip5_7_33">
<rect width="84.9081" height="14.0703" fill="white" transform="translate(7.92261 12.9186)"/>
</clipPath>
<clipPath id="clip6_7_33">
<rect width="84.9081" height="14.0703" fill="white" transform="translate(7.92261 12.9186)"/>
</clipPath>
<clipPath id="clip7_7_33">
<rect width="84.9081" height="14.0703" fill="white" transform="translate(7.92261 12.9186)"/>
</clipPath>
<clipPath id="clip8_7_33">
<rect width="84.9081" height="14.0703" fill="white" transform="translate(7.92261 12.9186)"/>
</clipPath>
<clipPath id="clip9_7_33">
<rect width="84.9081" height="14.0703" fill="white" transform="translate(7.92261 12.9186)"/>
</clipPath>
<clipPath id="clip10_7_33">
<rect width="84.9081" height="14.0703" fill="white" transform="translate(7.92261 12.9186)"/>
</clipPath>
</defs>
</svg>
