<svg xmlns="http://www.w3.org/2000/svg" version="1.1" xmlns:xlink="http://www.w3.org/1999/xlink" xmlns:svgjs="http://svgjs.dev/svgjs" width="2000" height="813" viewBox="0 0 2000 813"><g transform="matrix(1,0,0,1,-2.446808510638334,-0.9402105882352316)"><svg viewBox="0 0 376 153" data-background-color="#ffffff" preserveAspectRatio="xMidYMid meet" height="813" width="2000" xmlns="http://www.w3.org/2000/svg" xmlns:xlink="http://www.w3.org/1999/xlink"><g id="tight-bounds" transform="matrix(1,0,0,1,0.46023999999999887,0.17712999999999113)"><svg viewBox="0 0 375.07953 152.64593" height="152.64593" width="375.07953"><g><svg></svg></g><g><svg viewBox="0 0 375.07953 152.64593" height="152.64593" width="375.07953"><g transform="matrix(1,0,0,1,-10.22024,-51.68218999999999)"><path d="M10.22 195.518v-143.836h375.08v143.836l-94.01 0 0-4.854h89.156v-134.128h-365.372v134.128l89.156 0 0 4.854z" fill="#000000" fill-rule="nonzero" stroke="none" stroke-width="1" stroke-linecap="butt" stroke-linejoin="miter" stroke-miterlimit="10" stroke-dasharray="" stroke-dashoffset="0" font-family="none" font-weight="none" font-size="none" text-anchor="none" style="mix-blend-mode: normal" data-fill-palette-color="tertiary"></path><g><path d="M127.13 192.861v0h-6.295c-0.12 3.408 0.902 5.112 3.067 5.112v0c0.922 0 1.864-0.408 2.827-1.223v0c0.2 0.12 0.354 0.327 0.461 0.621v0c-0.922 1.029-2.092 1.544-3.508 1.544v0c-3.261 0-4.892-1.918-4.892-5.754v0c0-1.818 0.481-3.232 1.444-4.242 0.962-1.008 2.085-1.512 3.368-1.512v0c1.403 0 2.412 0.488 3.027 1.464 0.615 0.976 0.922 2.245 0.922 3.809v0c-0.134 0.107-0.274 0.167-0.421 0.181zM123.562 188.209v0c-0.695 0-1.286 0.361-1.773 1.083-0.489 0.722-0.787 1.644-0.894 2.767v0h2.486c0.989 0 1.697-0.06 2.125-0.181v0c0-1.096-0.167-1.982-0.501-2.658-0.334-0.674-0.815-1.01-1.443-1.011zM137.355 195.026v-3.669c0-1.029-0.136-1.751-0.409-2.165-0.275-0.414-0.734-0.621-1.376-0.622v0c-0.989 0-1.985 0.742-2.987 2.226v0 6.696l1.624 0.3c0.053 0.214 0.053 0.481 0 0.802v0c-0.842-0.04-1.704-0.06-2.586-0.06v0c-0.615 0-1.484 0.013-2.606 0.04v0c-0.08-0.254-0.08-0.515 0-0.782v0l1.584-0.22c0.053-0.735 0.08-1.584 0.08-2.546v0-5.493c0-0.267-0.02-0.515-0.06-0.742v0l-1.584-0.201c-0.053-0.2-0.053-0.454 0-0.762v0c0.922-0.067 2.072-0.207 3.448-0.421v0c0.12 0.134 0.187 0.267 0.201 0.401v0c-0.067 0.347-0.1 0.942-0.101 1.785v0c1.056-1.457 2.245-2.185 3.569-2.186v0c2.072 0 3.107 0.982 3.107 2.948v0 7.137l1.624 0.3c0.053 0.214 0.053 0.481 0 0.802v0c-0.842-0.04-1.704-0.06-2.586-0.06v0c-0.615 0-1.484 0.013-2.606 0.04v0c-0.08-0.254-0.08-0.515 0-0.782v0l1.584-0.22c0.053-0.735 0.08-1.584 0.08-2.546zM143.269 199.376v0-8.621c0-0.882-0.02-1.537-0.06-1.964v0l-1.784-0.201c-0.053-0.2-0.053-0.454 0-0.762v0c1.176-0.08 2.392-0.221 3.648-0.421v0c0.12 0.134 0.187 0.267 0.201 0.401v0c-0.067 0.347-0.1 1.43-0.1 3.248v0 7.258c0 1.083-0.096 2.058-0.289 2.927-0.195 0.869-0.536 1.601-1.023 2.197-0.489 0.593-1.095 0.89-1.816 0.89v0c-0.802 0-1.373-0.12-1.712-0.361-0.342-0.241-0.513-0.621-0.513-1.143v0c0.321-0.454 0.775-0.682 1.363-0.681v0c0.187 0 0.381 0.02 0.581 0.06v0c0.147 0.949 0.354 1.423 0.622 1.423v0c0.321 0 0.548-0.321 0.681-0.962 0.134-0.642 0.2-1.738 0.201-3.288zM142.246 183.899v0c-0.027-0.067-0.04-0.138-0.04-0.213 0-0.072 0-0.142 0-0.208v0c0-0.361 0.15-0.652 0.449-0.874 0.302-0.219 0.674-0.329 1.115-0.329v0c0.414 0 0.752 0.123 1.015 0.369 0.259 0.249 0.389 0.587 0.389 1.014v0c0 0.347-0.151 0.628-0.454 0.842-0.299 0.214-0.683 0.321-1.15 0.321v0c-0.321 0-0.604-0.08-0.85-0.24-0.249-0.16-0.406-0.388-0.474-0.682zM147.619 193.181v0c0-0.802 0.118-1.554 0.353-2.257 0.233-0.7 0.569-1.311 1.011-1.833 0.441-0.521 0.973-0.933 1.596-1.235 0.62-0.299 1.318-0.449 2.093-0.449v0c0.762 0 1.457 0.15 2.085 0.449 0.628 0.302 1.165 0.714 1.611 1.235 0.449 0.521 0.794 1.132 1.035 1.833 0.241 0.703 0.361 1.456 0.361 2.257v0c0 0.829-0.123 1.59-0.369 2.286-0.249 0.695-0.597 1.299-1.047 1.812-0.446 0.516-0.984 0.917-1.611 1.203-0.628 0.289-1.317 0.433-2.065 0.433v0c-0.789 0-1.494-0.14-2.118-0.421-0.62-0.281-1.147-0.675-1.579-1.183-0.436-0.508-0.77-1.113-1.003-1.816-0.235-0.7-0.353-1.472-0.353-2.314zM150.546 189.492v0c-0.575 0.815-0.862 2.045-0.862 3.689v0c0 0.815 0.078 1.53 0.233 2.145 0.152 0.615 0.362 1.125 0.629 1.532 0.267 0.409 0.581 0.714 0.943 0.914 0.361 0.2 0.755 0.301 1.183 0.301v0c0.414 0 0.809-0.1 1.182-0.301 0.374-0.2 0.695-0.505 0.963-0.914 0.267-0.406 0.481-0.917 0.641-1.532 0.16-0.615 0.241-1.33 0.241-2.145v0c0-0.815-0.08-1.534-0.241-2.157-0.16-0.62-0.377-1.135-0.649-1.544-0.275-0.406-0.597-0.714-0.967-0.922-0.366-0.206-0.756-0.309-1.17-0.309v0c-0.829 0-1.537 0.414-2.126 1.243zM162.455 201.481v0l1.283-3.027-3.889-9.583-1.564-0.321c-0.067-0.267-0.067-0.535 0-0.802v0c0.735 0.053 1.631 0.08 2.687 0.08v0c0.949 0 1.851-0.02 2.706-0.06v0c0.08 0.267 0.08 0.528 0 0.782v0l-1.724 0.281 1.904 4.511c0.267 0.655 0.548 1.57 0.842 2.746v0h0.041c0.227-0.802 0.541-1.684 0.942-2.646v0l1.744-4.671-1.564-0.221c-0.053-0.214-0.053-0.481 0-0.802v0c0.735 0.053 1.45 0.08 2.145 0.08v0c0.588 0 1.317-0.02 2.186-0.06v0c0.08 0.267 0.08 0.528 0 0.782v0l-1.584 0.221-5.293 12.951c-0.281 0.668-0.595 1.169-0.942 1.503-0.347 0.334-0.809 0.501-1.383 0.502v0c-0.454 0-0.805-0.056-1.051-0.169-0.249-0.115-0.5-0.333-0.754-0.653v0c0.08-0.735 0.461-1.323 1.143-1.765v0c0.548 0.615 1.016 0.922 1.403 0.923v0c0.334 0 0.575-0.194 0.722-0.582zM179.235 201.481v0l1.284-3.027-3.89-9.583-1.564-0.321c-0.067-0.267-0.067-0.535 0-0.802v0c0.735 0.053 1.631 0.08 2.687 0.08v0c0.949 0 1.851-0.02 2.706-0.06v0c0.08 0.267 0.08 0.528 0 0.782v0l-1.724 0.281 1.905 4.511c0.267 0.655 0.548 1.57 0.842 2.746v0h0.04c0.227-0.802 0.541-1.684 0.942-2.646v0l1.744-4.671-1.563-0.221c-0.053-0.214-0.053-0.481 0-0.802v0c0.735 0.053 1.45 0.08 2.145 0.08v0c0.588 0 1.317-0.02 2.185-0.06v0c0.08 0.267 0.08 0.528 0 0.782v0l-1.584 0.221-5.292 12.951c-0.281 0.668-0.595 1.169-0.943 1.503-0.347 0.334-0.809 0.501-1.383 0.502v0c-0.454 0-0.806-0.056-1.055-0.169-0.246-0.115-0.496-0.333-0.749-0.653v0c0.08-0.735 0.461-1.323 1.142-1.765v0c0.548 0.615 1.016 0.922 1.404 0.923v0c0.334 0 0.575-0.194 0.721-0.582zM187.495 193.181v0c0-0.802 0.118-1.554 0.353-2.257 0.233-0.7 0.569-1.311 1.011-1.833 0.441-0.521 0.973-0.933 1.595-1.235 0.62-0.299 1.318-0.449 2.093-0.449v0c0.762 0 1.457 0.15 2.085 0.449 0.628 0.302 1.167 0.714 1.616 1.235 0.446 0.521 0.79 1.132 1.031 1.833 0.241 0.703 0.361 1.456 0.361 2.257v0c0 0.829-0.123 1.59-0.369 2.286-0.249 0.695-0.596 1.299-1.043 1.812-0.449 0.516-0.988 0.917-1.616 1.203-0.628 0.289-1.317 0.433-2.065 0.433v0c-0.789 0-1.493-0.14-2.113-0.421-0.623-0.281-1.151-0.675-1.583-1.183-0.436-0.508-0.77-1.113-1.003-1.816-0.235-0.7-0.353-1.472-0.353-2.314zM190.422 189.492v0c-0.575 0.815-0.862 2.045-0.862 3.689v0c0 0.815 0.078 1.53 0.233 2.145 0.152 0.615 0.362 1.125 0.629 1.532 0.267 0.409 0.581 0.714 0.943 0.914 0.361 0.2 0.755 0.301 1.182 0.301v0c0.414 0 0.809-0.1 1.183-0.301 0.374-0.2 0.695-0.505 0.963-0.914 0.267-0.406 0.481-0.917 0.641-1.532 0.16-0.615 0.241-1.33 0.241-2.145v0c0-0.815-0.08-1.534-0.241-2.157-0.16-0.62-0.377-1.135-0.649-1.544-0.275-0.406-0.596-0.714-0.963-0.922-0.369-0.206-0.76-0.309-1.175-0.309v0c-0.829 0-1.537 0.414-2.125 1.243zM208.847 187.808v0 7.859c0 0.895 0.02 1.524 0.06 1.885v0l1.584 0.2c0.04 0.214 0.04 0.468 0 0.762v0c-0.976 0.04-1.991 0.134-3.048 0.281v0c-0.094-0.094-0.16-0.221-0.2-0.381v0l-0.1-1.784c-0.561 0.722-1.139 1.283-1.733 1.684-0.596 0.401-1.295 0.601-2.097 0.601v0c-0.815 0-1.5-0.207-2.053-0.621-0.556-0.414-0.834-1.123-0.834-2.126v0-4.45c0-1.524-0.02-2.499-0.06-2.927v0l-1.584-0.201c-0.053-0.2-0.053-0.454 0-0.762v0c0.922-0.067 2.072-0.207 3.449-0.421v0c0.12 0.134 0.187 0.267 0.2 0.401v0c-0.067 0.347-0.1 2.8-0.1 7.358v0c0 0.936 0.111 1.6 0.333 1.993 0.219 0.396 0.63 0.593 1.231 0.593v0c1.123 0 2.138-0.668 3.047-2.005v0-4.049c0-1.51-0.02-2.479-0.06-2.907v0l-1.584-0.201c-0.053-0.2-0.053-0.454 0-0.762v0c0.802-0.053 1.918-0.194 3.348-0.421v0c0.12 0.134 0.187 0.267 0.201 0.401zM215.102 187.808v0l-0.04 2.065c0.334-0.615 0.799-1.18 1.395-1.696 0.593-0.513 1.157-0.77 1.692-0.77v0c0.414 0 0.782 0.047 1.103 0.141v0c0.107 0.174 0.16 0.401 0.16 0.681v0c0 0.441-0.094 0.882-0.281 1.324v0c-0.481-0.134-0.942-0.2-1.383-0.201v0c-1.096 0-1.998 0.535-2.706 1.604v0l-0.041 3.508v3.028l2.226 0.3c0.053 0.214 0.053 0.481 0 0.802v0c-0.842-0.04-1.804-0.06-2.887-0.06v0c-0.815 0-1.784 0.013-2.907 0.04v0c-0.08-0.254-0.08-0.515 0-0.782v0l1.584-0.22c0.053-0.735 0.08-1.584 0.08-2.546v0-5.493c0-0.267-0.02-0.515-0.06-0.742v0l-1.584-0.201c-0.053-0.2-0.053-0.454 0-0.762v0c0.922-0.067 2.072-0.207 3.448-0.421v0c0.12 0.134 0.187 0.267 0.201 0.401zM235.03 185.804v9.863c0 0.895 0.02 1.524 0.06 1.885v0l1.584 0.2c0.04 0.214 0.04 0.468 0 0.762v0c-0.976 0.04-1.991 0.134-3.048 0.281v0c-0.094-0.094-0.16-0.221-0.2-0.381v0l-0.1-1.283c-0.468 0.548-1.049 0.985-1.745 1.311-0.695 0.329-1.423 0.493-2.185 0.493v0c-1.163 0-2.125-0.485-2.887-1.455-0.762-0.968-1.143-2.26-1.143-3.878v0c0-1.871 0.499-3.372 1.496-4.503 0.994-1.128 2.187-1.692 3.577-1.692v0c1.096 0 1.991 0.261 2.686 0.782v0-2.686c0-0.882-0.02-1.537-0.06-1.965v0l-1.584-0.2c-0.053-0.2-0.053-0.454 0-0.762v0c0.922-0.067 2.072-0.207 3.448-0.421v0c0.12 0.134 0.187 0.267 0.201 0.401v0c-0.067 0.347-0.1 1.43-0.1 3.248zM230.278 188.49v0c-0.869 0-1.564 0.457-2.085 1.371-0.521 0.917-0.782 2.184-0.782 3.801v0c0 1.323 0.245 2.332 0.734 3.028 0.486 0.695 1.131 1.043 1.933 1.042v0c0.481 0 1.009-0.151 1.584-0.453 0.575-0.299 1.063-0.716 1.463-1.251v0-6.415c-0.655-0.748-1.604-1.123-2.847-1.123zM241.285 187.808v0l-0.04 2.065c0.334-0.615 0.799-1.18 1.395-1.696 0.593-0.513 1.157-0.77 1.692-0.77v0c0.414 0 0.782 0.047 1.103 0.141v0c0.107 0.174 0.16 0.401 0.16 0.681v0c0 0.441-0.094 0.882-0.281 1.324v0c-0.481-0.134-0.942-0.2-1.383-0.201v0c-1.096 0-1.998 0.535-2.706 1.604v0l-0.041 3.508v3.028l2.226 0.3c0.053 0.214 0.053 0.481 0 0.802v0c-0.842-0.04-1.804-0.06-2.887-0.06v0c-0.815 0-1.784 0.013-2.907 0.04v0c-0.08-0.254-0.08-0.515 0-0.782v0l1.584-0.22c0.053-0.735 0.08-1.584 0.08-2.546v0-5.493c0-0.267-0.02-0.515-0.06-0.742v0l-1.584-0.201c-0.053-0.2-0.053-0.454 0-0.762v0c0.922-0.067 2.072-0.207 3.448-0.421v0c0.12 0.134 0.187 0.267 0.201 0.401zM249.905 191.056v0 6.436l1.624 0.3c0.013 0.067 0.024 0.127 0.032 0.181 0.005 0.053 0.008 0.114 0.008 0.18v0c0 0.067-0.003 0.136-0.008 0.209-0.008 0.075-0.019 0.152-0.032 0.232v0c-0.842-0.04-1.704-0.06-2.586-0.06v0c-0.307 0-0.678 0.004-1.111 0.012-0.436 0.005-0.934 0.015-1.495 0.028v0c-0.04-0.12-0.06-0.247-0.06-0.381v0c0-0.12 0.02-0.254 0.06-0.401v0l1.584-0.22c0.027-0.374 0.047-0.773 0.06-1.195 0.013-0.42 0.02-0.87 0.02-1.351v0-4.271c0-0.882-0.02-1.537-0.06-1.964v0l-1.584-0.201c-0.027-0.067-0.04-0.18-0.04-0.341v0c0-0.067 0-0.134 0-0.2 0-0.067 0.013-0.14 0.04-0.221v0c0.909-0.053 2.058-0.194 3.448-0.421v0c0.12 0.134 0.187 0.267 0.201 0.401v0c-0.067 0.374-0.1 1.457-0.101 3.248zM246.978 183.899v0c-0.027-0.067-0.04-0.138-0.04-0.213 0-0.072 0-0.142 0-0.208v0c0-0.361 0.151-0.652 0.453-0.874 0.299-0.219 0.67-0.329 1.111-0.329v0c0.414 0 0.752 0.123 1.014 0.369 0.259 0.249 0.389 0.587 0.389 1.014v0c0 0.347-0.15 0.628-0.449 0.842-0.302 0.214-0.687 0.321-1.154 0.321v0c-0.321 0-0.604-0.08-0.85-0.24-0.249-0.16-0.406-0.388-0.474-0.682zM260.892 195.026v-3.669c0-1.029-0.136-1.751-0.409-2.165-0.275-0.414-0.734-0.621-1.375-0.622v0c-0.989 0-1.985 0.742-2.988 2.226v0 6.696l1.624 0.3c0.053 0.214 0.053 0.481 0 0.802v0c-0.842-0.04-1.704-0.06-2.586-0.06v0c-0.615 0-1.484 0.013-2.606 0.04v0c-0.08-0.254-0.08-0.515 0-0.782v0l1.584-0.22c0.053-0.735 0.08-1.584 0.08-2.546v0-5.493c0-0.267-0.02-0.515-0.06-0.742v0l-1.584-0.201c-0.053-0.2-0.053-0.454 0-0.762v0c0.922-0.067 2.072-0.207 3.448-0.421v0c0.12 0.134 0.187 0.267 0.201 0.401v0c-0.067 0.347-0.1 0.942-0.101 1.785v0c1.056-1.457 2.245-2.185 3.569-2.186v0c2.072 0 3.107 0.982 3.107 2.948v0 7.137l1.624 0.3c0.053 0.214 0.053 0.481 0 0.802v0c-0.842-0.04-1.704-0.06-2.586-0.06v0c-0.615 0-1.484 0.013-2.606 0.04v0c-0.08-0.254-0.08-0.515 0-0.782v0l1.584-0.22c0.053-0.735 0.08-1.584 0.08-2.546zM272.941 197.592l-4.07-4.852 4.19-4.049-1.323-0.161c-0.053-0.214-0.053-0.474 0-0.782v0c0.735 0.053 1.423 0.08 2.065 0.08v0c0.521 0 1.216-0.02 2.085-0.06v0c0.08 0.241 0.08 0.495 0 0.762v0l-1.584 0.281-3.548 3.328 4.37 5.232 1.564 0.401c0.053 0.214 0.053 0.481 0 0.802v0c-0.842-0.04-1.684-0.06-2.526-0.06v0c-0.575 0-1.423 0.013-2.546 0.04v0c-0.08-0.267-0.08-0.528 0-0.782v0zM268.65 185.804v0 11.688l1.624 0.3c0.053 0.214 0.053 0.481 0 0.802v0c-0.842-0.04-1.697-0.06-2.566-0.06v0c-0.615 0-1.484 0.013-2.606 0.04v0c-0.08-0.254-0.08-0.515 0-0.782v0l1.584-0.22c0.053-0.735 0.08-1.584 0.08-2.546v0-11.488l-1.644-0.2c-0.053-0.2-0.053-0.454 0-0.762v0c0.895-0.067 2.038-0.207 3.428-0.421v0c0.12 0.134 0.187 0.267 0.201 0.401v0c-0.067 0.347-0.1 1.43-0.101 3.248z" fill="#000000" fill-rule="nonzero" stroke="none" stroke-width="1" stroke-linecap="butt" stroke-linejoin="miter" stroke-miterlimit="10" stroke-dasharray="" stroke-dashoffset="0" font-family="none" font-weight="none" font-size="none" text-anchor="none" style="mix-blend-mode: normal" data-fill-palette-color="secondary" id="text-1"></path></g></g><g transform="matrix(1,0,0,1,29.33176499999999,49.41359301932367)"><svg viewBox="0 0 316.416 53.81874396135265" height="53.81874396135265" width="316.416"><g><svg viewBox="0 0 316.416 53.81874396135265" height="53.81874396135265" width="316.416"><g><svg viewBox="0 0 316.416 53.81874396135265" height="53.81874396135265" width="316.416"><g><svg viewBox="0 0 316.416 53.81874396135265" height="53.81874396135265" width="316.416"><g id="textblocktransform"><svg viewBox="0 0 316.416 53.81874396135265" height="53.81874396135265" width="316.416" id="textblock"><g><svg viewBox="0 0 316.416 53.81874396135265" height="53.81874396135265" width="316.416"><g transform="matrix(1,0,0,1,0,0)"><svg width="316.416" viewBox="2.4399999999999995 -31.98 242.55 41.26" height="53.81874396135265" data-palette-color="#89939e"><path d="M9.28-0.83L9.28-0.83Q12.65-0.83 13.82-2.88L13.82-2.88Q14.26-3.61 14.26-4.49L14.26-4.49Q14.26-6.54 11.28-8.01L11.28-8.01Q10.64-8.35 9.18-8.98L9.18-8.98Q5.18-10.64 3.86-12.11L3.86-12.11Q2.44-13.72 2.44-15.87L2.44-15.87Q2.44-19.24 6.15-20.61L6.15-20.61Q7.86-21.24 9.86-21.24L9.86-21.24Q13.09-21.24 15.43-19.87L15.43-19.87Q15.43-21.29 16.11-21.48L16.11-21.48Q16.41-21.53 16.75-21.53L16.75-21.53 16.75-15.43 15.48-15.43Q15.38-19.92 10.5-19.97L10.5-19.97Q6.84-19.97 5.96-17.82L5.96-17.82Q5.71-17.24 5.71-16.6L5.71-16.6Q5.71-14.5 8.74-13.04L8.74-13.04Q9.42-12.7 10.89-12.11L10.89-12.11Q14.84-10.5 16.16-9.03L16.16-9.03Q17.58-7.47 17.58-5.32L17.58-5.32Q17.58-1.37 13.38-0.05L13.38-0.05Q11.77 0.49 9.86 0.49L9.86 0.49Q6.35 0.44 3.76-1.27L3.76-1.27Q3.76 0 3.13 0.2L3.13 0.2Q2.83 0.24 2.44 0.24L2.44 0.24 2.44-7.18 3.81-7.18Q3.91-0.88 9.28-0.83ZM44.68-1.22L44.68-1.22 42.23-1.22 42.23-20.75 34.57-20.75 34.57-19.53 38.57-19.53 38.57-8.98Q38.57-4.59 35.5-2.54L35.5-2.54Q34.13-1.61 32.66-1.61L32.66-1.61Q28.66-1.61 28.02-5.71L28.02-5.71Q27.93-6.4 27.93-7.18L27.93-7.18 27.93-20.75 20.51-20.75 20.51-19.53 24.27-19.53 24.27-7.91Q24.31 0.44 31.25 0.49L31.25 0.49Q34.91 0.49 37.25-2.49L37.25-2.49Q38.13-3.61 38.67-4.98L38.67-4.98 39.01 0 45.9 0Q45.9-1.07 45.16-1.17L45.16-1.17Q44.97-1.22 44.68-1.22ZM59.22 8.06L55.81 8.06 55.81-2.05Q58.49 0.29 62.01 0.49L62.01 0.49Q66.35 0.49 69.28-2.78L69.28-2.78Q72.11-5.96 72.11-10.84L72.11-10.84Q72.11-16.41 69.04-19.29L69.04-19.29Q66.89-21.24 63.81-21.24L63.81-21.24Q59.08-21.24 56.73-17.48L56.73-17.48Q56.15-16.5 55.76-15.43L55.76-15.43 55.51-20.75 48.48-20.75 48.48-19.53 52.14-19.53 52.14 5.13Q52.14 7.37 50.87 7.81L50.87 7.81Q50.14 8.06 48.48 8.06L48.48 8.06 48.48 9.28 60.44 9.28Q60.44 8.2 59.71 8.11L59.71 8.11Q59.52 8.06 59.22 8.06L59.22 8.06ZM62.25-19.29L62.25-19.29Q66.5-19.29 67.62-13.96L67.62-13.96Q67.96-12.35 67.96-10.35L67.96-10.35Q67.96-3.17 64.11-1.27L64.11-1.27Q62.98-0.73 61.66-0.73L61.66-0.73Q57.91-0.73 56.49-4.69L56.49-4.69Q55.76-6.69 55.76-9.42L55.76-9.42Q55.76-15.77 59.03-18.21L59.03-18.21Q60.49-19.29 62.25-19.29ZM86.22-20.02L86.22-20.02Q89.64-20.02 90.76-17.14L90.76-17.14Q91.15-16.21 91.15-15.14L91.15-15.14Q91.15-12.7 88.81-12.16L88.81-12.16Q87.59-11.91 85.34-11.96L85.34-11.96 80.17-12.11Q80.41-17.72 83.83-19.43L83.83-19.43Q84.95-20.02 86.22-20.02ZM94.72-4.69L94.72-4.69 93.5-5.13Q91.79-1.42 87.98-0.93L87.98-0.93Q87.49-0.88 87.05-0.88L87.05-0.88Q81.93-0.88 80.61-6.98L80.61-6.98Q80.22-8.69 80.17-10.74L80.17-10.74 86.03-10.64Q91.98-10.55 93.69-11.77L93.69-11.77Q95.01-12.74 95.01-14.55L95.01-14.55Q95.01-17.87 91.64-19.82L91.64-19.82Q89.25-21.24 86.13-21.24L86.13-21.24Q80.02-21.24 77.39-16.16L77.39-16.16Q76.02-13.53 76.02-10.21L76.02-10.21Q76.02-4.15 80.36-1.22L80.36-1.22Q82.95 0.49 86.27 0.49L86.27 0.49Q91.55 0.49 94.04-3.32L94.04-3.32Q94.43-4 94.72-4.69ZM109.12-1.22L109.12-1.22 105.61-1.22 105.61-10.94Q105.61-15.38 108.34-18.07L108.34-18.07Q109.41-19.09 110.15-19.14L110.15-19.14Q110.98-19.14 111.66-17.92L111.66-17.92Q112.44-16.55 113.12-16.36L113.12-16.36Q113.42-16.26 113.71-16.26L113.71-16.26Q115.18-16.26 115.57-17.68L115.57-17.68Q115.66-17.97 115.66-18.26L115.66-18.26Q115.66-20.46 113.42-20.95L113.42-20.95Q112.93-21.04 112.49-21.04L112.49-21.04Q109.56-21.04 107.27-18.55L107.27-18.55Q106.19-17.38 105.56-15.92L105.56-15.92 105.36-20.75 98.28-20.75 98.28-19.53 101.94-19.53 101.94-4.15Q101.94-1.9 100.67-1.46L100.67-1.46Q99.94-1.22 98.28-1.22L98.28-1.22 98.28 0 110.34 0Q110.34-1.07 109.61-1.17L109.61-1.17Q109.41-1.22 109.12-1.22ZM127.38-10.16L127.38-10.16Q127.38-4.25 131.72-1.32L131.72-1.32Q134.41 0.49 137.83 0.49L137.83 0.49Q142.9 0.49 145.49-3.08L145.49-3.08Q146.08-3.91 146.42-4.74L146.42-4.74 145.15-5.18Q143.34-1.32 139.19-0.93L139.19-0.93Q138.8-0.88 138.41-0.88L138.41-0.88Q134.95-0.88 132.99-4.35L132.99-4.35Q131.53-6.98 131.53-10.6L131.53-10.6Q131.53-16.99 134.9-19.14L134.9-19.14Q136.31-20.02 138.02-20.02L138.02-20.02Q140.66-20.02 141.2-17.97L141.2-17.97Q141.29-17.58 141.44-16.75L141.44-16.75Q141.73-14.79 142.51-14.31L142.51-14.31Q143-14.06 143.59-14.01L143.59-14.01Q145.25-13.92 145.69-15.38L145.69-15.38Q145.79-15.72 145.79-16.02L145.79-16.02Q145.79-18.51 142.61-20.12L142.61-20.12Q140.37-21.24 137.73-21.24L137.73-21.24Q131.19-21.24 128.6-15.92L128.6-15.92Q127.38-13.38 127.38-10.16ZM152.77-10.4L152.77-10.4Q152.77-17.97 156.92-19.63L156.92-19.63Q157.99-20.02 159.16-20.02L159.16-20.02Q164.58-20.02 165.46-13.18L165.46-13.18Q165.61-12.01 165.61-10.6L165.61-10.6Q165.61-2.39 161.12-0.98L161.12-0.98Q160.24-0.73 159.31-0.73L159.31-0.73Q154.38-0.73 153.11-6.59L153.11-6.59Q152.77-8.3 152.77-10.4ZM159.31-21.24L159.31-21.24Q154.62-21.24 151.5-18.02L151.5-18.02Q148.62-15.04 148.62-10.6L148.62-10.6Q148.62-4.44 153.11-1.37L153.11-1.37Q155.84 0.49 159.16 0.49L159.16 0.49Q163.85 0.49 166.93-2.83L166.93-2.83Q169.76-5.86 169.76-10.4L169.76-10.4Q169.76-16.55 165.22-19.53L165.22-19.53Q162.53-21.24 159.31-21.24ZM183.96-1.22L183.96-1.22 180.55-1.22 180.55-19.53 186.16-19.53 186.16-20.75 180.55-20.75 180.55-21.04Q180.55-29.39 183.04-30.52L183.04-30.52Q183.57-30.76 184.21-30.76L184.21-30.76Q185.72-30.76 186.75-28.96L186.75-28.96Q187.63-27.39 188.02-27.1L188.02-27.1Q188.41-26.81 188.9-26.81L188.9-26.81Q190.51-26.81 190.8-28.17L190.8-28.17Q190.85-28.42 190.85-28.61L190.85-28.61Q190.85-30.42 188.41-31.45L188.41-31.45Q186.99-31.98 185.23-31.98L185.23-31.98Q180.64-31.98 178.4-28.17L178.4-28.17Q176.88-25.54 176.88-21.53L176.88-21.53 176.88-20.75 173.47-20.75 173.47-19.53 176.88-19.53 176.88-4.15Q176.88-1.9 175.61-1.46L175.61-1.46Q174.88-1.22 173.22-1.22L173.22-1.22 173.22 0 185.19 0Q185.19-1.07 184.45-1.17L184.45-1.17Q184.26-1.22 183.96-1.22ZM198.81-1.22L198.81-1.22 195.39-1.22 195.39-19.53 201-19.53 201-20.75 195.39-20.75 195.39-21.04Q195.39-29.39 197.88-30.52L197.88-30.52Q198.42-30.76 199.05-30.76L199.05-30.76Q200.56-30.76 201.59-28.96L201.59-28.96Q202.47-27.39 202.86-27.1L202.86-27.1Q203.25-26.81 203.74-26.81L203.74-26.81Q205.35-26.81 205.64-28.17L205.64-28.17Q205.69-28.42 205.69-28.61L205.69-28.61Q205.69-30.42 203.25-31.45L203.25-31.45Q201.83-31.98 200.08-31.98L200.08-31.98Q195.49-31.98 193.24-28.17L193.24-28.17Q191.73-25.54 191.73-21.53L191.73-21.53 191.73-20.75 188.31-20.75 188.31-19.53 191.73-19.53 191.73-4.15Q191.73-1.9 190.46-1.46L190.46-1.46Q189.72-1.22 188.06-1.22L188.06-1.22 188.06 0 200.03 0Q200.03-1.07 199.29-1.17L199.29-1.17Q199.1-1.22 198.81-1.22ZM213.55-20.02L213.55-20.02Q216.97-20.02 218.09-17.14L218.09-17.14Q218.48-16.21 218.48-15.14L218.48-15.14Q218.48-12.7 216.14-12.16L216.14-12.16Q214.92-11.91 212.67-11.96L212.67-11.96 207.49-12.11Q207.74-17.72 211.16-19.43L211.16-19.43Q212.28-20.02 213.55-20.02ZM222.05-4.69L222.05-4.69 220.82-5.13Q219.12-1.42 215.31-0.93L215.31-0.93Q214.82-0.88 214.38-0.88L214.38-0.88Q209.25-0.88 207.93-6.98L207.93-6.98Q207.54-8.69 207.49-10.74L207.49-10.74 213.35-10.64Q219.31-10.55 221.02-11.77L221.02-11.77Q222.34-12.74 222.34-14.55L222.34-14.55Q222.34-17.87 218.97-19.82L218.97-19.82Q216.58-21.24 213.45-21.24L213.45-21.24Q207.35-21.24 204.71-16.16L204.71-16.16Q203.34-13.53 203.34-10.21L203.34-10.21Q203.34-4.15 207.69-1.22L207.69-1.22Q210.28 0.49 213.6 0.49L213.6 0.49Q218.87 0.49 221.36-3.32L221.36-3.32Q221.75-4 222.05-4.69ZM236.2-20.02L236.2-20.02Q239.62-20.02 240.74-17.14L240.74-17.14Q241.13-16.21 241.13-15.14L241.13-15.14Q241.13-12.7 238.79-12.16L238.79-12.16Q237.57-11.91 235.32-11.96L235.32-11.96 230.15-12.11Q230.39-17.72 233.81-19.43L233.81-19.43Q234.93-20.02 236.2-20.02ZM244.7-4.69L244.7-4.69 243.48-5.13Q241.77-1.42 237.96-0.93L237.96-0.93Q237.47-0.88 237.03-0.88L237.03-0.88Q231.91-0.88 230.59-6.98L230.59-6.98Q230.2-8.69 230.15-10.74L230.15-10.74 236.01-10.64Q241.96-10.55 243.67-11.77L243.67-11.77Q244.99-12.74 244.99-14.55L244.99-14.55Q244.99-17.87 241.62-19.82L241.62-19.82Q239.23-21.24 236.11-21.24L236.11-21.24Q230-21.24 227.37-16.16L227.37-16.16Q226-13.53 226-10.21L226-10.21Q226-4.15 230.34-1.22L230.34-1.22Q232.93 0.49 236.25 0.49L236.25 0.49Q241.53 0.49 244.02-3.32L244.02-3.32Q244.41-4 244.7-4.69Z" opacity="1" transform="matrix(1,0,0,1,0,0)" fill="#000000" class="wordmark-text-0" data-fill-palette-color="primary" id="text-0"></path></svg></g></svg></g></svg></g></svg></g><g></g></svg></g></svg></g></svg></g></svg></g><defs></defs></svg><rect width="375.07953" height="152.64593" fill="none" stroke="none" visibility="hidden"></rect></g></svg></g></svg>